<svg width="128" height="128" xmlns="http://www.w3.org/2000/svg">

 <g>
  <title>background</title>
  <rect fill="none" id="canvas_background" height="402" width="582" y="-1" x="-1"/>
 </g>
 <g>
  <title>Layer 1</title>
  <path id="svg_3" fill="#F44336" d="m117.996,8.242c-2.82,-5.086 -8.18,-8.242 -13.996,-8.242l-80,0c-5.816,0 -11.176,3.156 -13.996,8.242c-2.816,5.086 -2.656,11.305 0.43,16.234l11.605,18.57c1.809,-2.055 3.742,-3.992 5.832,-5.766l-10.656,-17.046c-1.539,-2.461 -1.621,-5.57 -0.215,-8.109c1.41,-2.547 4.094,-4.125 7,-4.125l80,0c2.906,0 5.59,1.578 6.996,4.117c1.41,2.547 1.328,5.656 -0.215,8.117l-10.656,17.047c2.09,1.773 4.027,3.711 5.836,5.766l11.605,-18.57c3.086,-4.93 3.247,-11.149 0.43,-16.235z"/>
  <path stroke="#ffc107" id="svg_4" fill="#ffc107" d="m64,48c-17.672,0 -32,14.328 -32,32s14.328,32 32,32s32,-14.328 32,-32s-14.328,-32 -32,-32l0,0z"/>
  <path id="svg_5" fill="#ffa726" d="m64,40c22.055,0 40,17.945 40,40s-17.945,40 -40,40s-40,-17.945 -40,-40s17.945,-40 40,-40m0,-8c-26.508,0 -48,21.492 -48,48s21.492,48 48,48s48,-21.492 48,-48s-21.492,-48 -48,-48l0,0z"/>
  <text style="cursor: move;" stroke="null" transform="matrix(2.5802366733551025,0,0,2.5802366733551025,-88.98707766830921,-81.65379185602069) " xml:space="preserve" text-anchor="start" font-family="Helvetica, Arial, sans-serif" font-size="24" id="svg_6" y="71.33065" x="52.295737" stroke-opacity="null" stroke-width="0" fill="#000000">3</text>
 </g>
</svg>